<?xml version="1.0" standalone="no"?>
<!DOCTYPE svg PUBLIC "-//W3C//DTD SVG 20010904//EN"
 "http://www.w3.org/TR/2001/REC-SVG-20010904/DTD/svg10.dtd">
<svg version="1.0" xmlns="http://www.w3.org/2000/svg"
 width="270.000000pt" height="270.000000pt" viewBox="0 0 270.000000 270.000000"
 preserveAspectRatio="xMidYMid meet">
<metadata>
Created by potrace 1.11, written by Peter Selinger 2001-2013
</metadata>
<g transform="translate(0.000000,270.000000) scale(0.100000,-0.100000)"
fill="#000000" stroke="none">
<path d="M60 1345 l0 -1285 1290 0 1290 0 0 1285 0 1285 -1290 0 -1290 0 0
-1285z m1405 1070 c90 -40 161 -140 185 -263 41 -207 -61 -385 -248 -433 -44
-11 -57 -10 -106 5 -66 21 -124 61 -162 113 -16 21 -32 40 -35 43 -25 21 -33
64 -33 180 1 105 4 134 23 183 27 68 91 135 173 178 45 24 60 28 103 22 28 -3
73 -16 100 -28z m-457 -127 c-32 -59 -39 -97 -39 -210 0 -165 28 -240 125
-346 124 -133 304 -158 450 -60 86 56 135 132 182 277 22 68 19 234 -6 300
-11 30 -18 56 -16 58 2 2 15 -14 29 -34 78 -113 110 -255 84 -372 -29 -126
-109 -250 -195 -302 -20 -13 -39 -27 -43 -31 -3 -4 -39 -20 -80 -35 -144 -53
-277 -32 -398 61 -138 108 -193 213 -207 402 -5 56 -3 83 5 88 6 4 11 15 11
25 0 21 42 121 72 169 22 36 46 45 26 10z m60 -1200 c4 -32 -12 -36 -39 -12
-14 12 -22 13 -38 4 -16 -8 -21 -20 -21 -55 0 -40 2 -44 27 -47 39 -4 42 -28
4 -28 l-31 0 0 -104 c0 -59 4 -108 10 -111 23 -14 7 -25 -40 -25 -50 0 -60 6
-39 27 6 6 11 54 12 107 2 87 0 97 -17 102 -18 6 -18 7 -3 19 9 7 20 27 23 46
13 67 60 109 119 106 25 -2 31 -7 33 -29z m-523 -128 c13 -40 -13 -52 -45 -20
-24 24 -53 26 -74 4 -31 -30 -12 -59 54 -86 45 -19 63 -42 63 -79 0 -46 -32
-72 -90 -73 -75 -1 -103 10 -103 39 0 31 30 34 48 4 16 -25 79 -23 96 4 15 24
0 44 -54 73 -47 25 -80 57 -80 79 0 8 12 27 26 44 24 29 31 31 89 31 55 0 65
-3 70 -20z m240 4 c17 -13 20 -29 23 -117 3 -75 8 -107 19 -119 15 -17 14 -18
-20 -18 -26 0 -37 4 -37 15 0 8 -6 15 -14 15 -7 0 -19 -7 -26 -15 -8 -9 -29
-15 -56 -15 -33 0 -46 5 -58 22 -37 52 -2 102 84 120 53 11 60 15 60 36 0 61
-52 83 -96 41 -25 -24 -57 -19 -48 6 15 38 130 58 169 29z m466 -13 c21 -22
29 -39 29 -65 l0 -35 -82 -3 c-81 -3 -83 -4 -86 -29 -4 -38 32 -79 72 -79 18
0 41 7 52 15 24 19 34 19 34 0 0 -23 -54 -45 -109 -45 -43 0 -53 4 -75 31 -22
25 -26 41 -26 90 0 33 5 70 11 82 36 71 127 90 180 38z m-3 -366 c2 -2 2 -16
0 -31 l-3 -29 -21 23 c-31 33 -89 28 -89 -8 0 -19 12 -31 55 -55 49 -27 55
-35 58 -66 5 -56 -28 -75 -126 -71 -34 2 -49 20 -38 48 5 13 11 12 37 -10 32
-27 65 -28 81 -2 18 27 6 47 -48 74 -52 27 -66 44 -62 79 4 39 58 66 113 57
22 -3 41 -8 43 -9z m515 -13 c14 -12 17 -32 17 -100 0 -65 4 -90 17 -104 15
-17 14 -18 -20 -18 -27 0 -37 4 -37 16 0 15 -2 15 -25 0 -36 -24 -90 -21 -109
6 -9 12 -16 30 -16 38 0 22 39 57 70 64 87 17 83 15 76 48 -10 52 -50 64 -85
27 -12 -13 -26 -19 -35 -16 -35 14 -10 42 50 56 44 10 71 5 97 -17z m270 11
c11 -7 8 -41 -5 -49 -7 -4 -18 2 -26 14 -16 25 -49 28 -77 8 -26 -19 -33 -117
-11 -151 18 -28 62 -34 96 -13 25 16 39 2 18 -18 -19 -19 -75 -32 -107 -24
-60 14 -91 126 -51 188 25 41 73 63 120 55 19 -3 38 -8 43 -10z m230 -24 c17
-18 27 -40 27 -59 l0 -30 -80 0 c-79 0 -80 0 -80 -25 0 -14 11 -37 25 -51 27
-27 47 -26 92 2 15 9 24 10 28 3 4 -6 5 -12 4 -13 -53 -40 -117 -48 -156 -21
-50 35 -53 153 -5 198 48 45 101 44 145 -4z m-893 16 c0 -19 9 -19 34 0 11 8
37 15 57 15 56 0 79 -34 79 -116 0 -56 -4 -68 -28 -95 -24 -27 -35 -32 -83
-33 -51 -1 -54 -2 -57 -29 -2 -16 4 -39 13 -53 l15 -24 -51 0 c-50 0 -51 1
-36 18 14 15 17 42 17 157 0 115 -3 142 -17 157 -15 17 -14 18 20 18 26 0 37
-4 37 -15z"/>
<path d="M1239 2388 c-85 -48 -130 -188 -96 -300 18 -62 86 -132 146 -152 57
-18 97 -21 106 -6 3 6 16 10 27 10 26 0 91 66 118 120 15 30 20 59 20 125 0
101 -10 126 -75 183 -46 41 -47 41 -129 41 -63 -1 -90 -5 -117 -21z m178 -70
c46 -50 63 -92 63 -151 0 -57 -14 -87 -39 -87 -6 0 -11 -9 -11 -20 0 -13 -10
-24 -27 -31 -35 -13 -79 -8 -75 9 1 8 -5 13 -15 12 -34 -4 -43 0 -43 20 0 23
15 27 24 5 3 -8 14 -15 25 -15 10 0 22 -7 25 -15 5 -14 9 -14 36 0 16 8 30 22
30 30 0 8 9 19 20 25 34 18 25 110 -10 110 -10 0 -23 7 -30 15 -9 11 -16 12
-25 5 -9 -8 -15 -8 -20 0 -8 13 -55 13 -55 0 0 -5 5 -10 10 -10 20 0 9 -29
-20 -54 -17 -14 -30 -33 -28 -42 2 -9 -3 -19 -9 -21 -13 -5 -19 46 -14 117 3
36 34 76 51 65 6 -3 10 0 10 8 0 13 23 28 60 40 30 10 47 6 67 -15z"/>
<path d="M1354 2295 c3 -17 0 -25 -10 -25 -8 0 -14 -4 -14 -10 0 -13 50 -13
70 0 10 7 11 10 2 10 -7 0 -17 11 -22 25 -5 14 -14 25 -20 25 -6 0 -8 -11 -6
-25z"/>
<path d="M704 829 c-41 -12 -58 -33 -50 -63 11 -45 74 -38 100 11 10 20 11 34
5 46 -11 19 -11 19 -55 6z"/>
<path d="M1131 934 c-12 -15 -21 -35 -21 -45 0 -16 8 -19 60 -19 57 0 60 1 60
25 0 30 -32 65 -59 65 -11 0 -29 -12 -40 -26z"/>
<path d="M1650 440 c-25 -25 -25 -32 -1 -54 32 -29 91 8 91 58 0 24 -65 21
-90 -4z"/>
<path d="M2155 555 c-41 -40 -33 -55 30 -55 30 0 55 3 55 8 -1 27 -15 51 -36
61 -21 9 -28 8 -49 -14z"/>
<path d="M1411 556 c-14 -8 -28 -22 -32 -32 -11 -29 -10 -103 2 -125 15 -29
55 -42 80 -26 44 27 49 137 8 178 -22 22 -26 23 -58 5z"/>
</g>
</svg>
